<?xml version="1.0" encoding="UTF-8"?>
<svg width="512px" height="512px" viewBox="0 0 512 512" version="1.1" xmlns="http://www.w3.org/2000/svg" xmlns:xlink="http://www.w3.org/1999/xlink">
    <title> Pixel Tablet</title>
    <defs>
        <path d="M0,0 L512,0 L512,512 L0,512 L0,0 Z" id="path-1"></path>
    </defs>
    <g id="-Pixel-Tablet" stroke="none" fill="none" xlink:href="#path-1" fill-rule="evenodd" stroke-width="1">
        <g id="Layer_1" transform="translate(31.1691, 0)" fill="#85ADFF">
            <path d="M412.246442,0.395490042 C438.635818,4.69850332 449.637458,27.8686775 449.761316,47.798264 C449.895421,69.3708584 449.795651,90.9449567 449.788101,112.518381 C449.781989,130.169345 449.802123,147.82051 449.707566,165.471025 C449.691926,168.380887 449.523307,171.388115 448.780696,174.179266 C445.073934,188.116685 432.722076,194.306569 419.624192,188.273664 C409.625283,183.668206 400.082619,178.074973 390.335561,172.923881 C388.647564,172.03181 386.952197,171.153409 384.647066,169.948098 C379.788906,180.78943 375.081571,191.188755 370.459983,201.626058 C354.115177,238.53966 337.875893,275.500216 321.453069,312.379163 C302.541933,354.845709 283.479614,397.244965 264.480751,439.672458 C260.680871,448.158136 256.95784,456.679591 253.044887,465.113018 C247.617861,476.809117 240.273997,487.241885 230.5495,495.694524 C207.482368,515.744864 175.796565,517.350569 150.179731,500.252354 C135.895216,490.718008 125.583605,478.138659 118.948915,462.232131 C90.4040627,393.79618 61.6441213,325.449695 32.977568,257.064289 C24.2738689,236.300786 15.5727756,215.535982 6.95967763,194.734862 C2.14592122,183.109464 -1.76136916,171.265072 0.479585833,158.381416 C5.85376121,127.484268 23.5082482,113.043119 46.0361739,109.237416 C74.6247989,104.407891 99.49273,123.052017 107.595564,144.325107 C115.432885,164.901263 123.699394,185.316735 131.952692,205.732028 C156.067946,265.383246 180.245848,325.009237 204.488555,384.608742 C206.3236,389.120066 208.389015,393.678165 211.171692,397.636269 C217.475344,406.602626 226.035412,411.748152 237.450692,410.750748 C244.116392,410.168349 248.811234,405.793669 249.751856,399.169117 C250.997,390.401891 248.792089,382.413412 242.530412,376.185281 C237.518014,371.199922 231.833204,366.843601 226.187583,362.548017 C212.271137,351.959795 206.943161,337.480312 212.853847,321.016253 C218.135084,306.305678 224.784694,292.074164 231.072168,277.737069 C252.495435,228.886266 274.028449,180.08354 295.505197,131.256124 C296.484738,129.029169 297.323703,126.740513 298.473662,123.867034 C294.412403,121.531132 290.432578,119.234642 286.445742,116.950834 C280.282397,113.420283 274.010473,110.065384 267.974941,106.32917 C261.004898,102.014283 258.622558,95.2162329 259.025861,87.3996135 C259.322743,81.6430715 262.161239,77.2353527 267.191882,74.2313122 C274.555432,69.8342768 281.785055,65.2097862 289.200646,60.9036751 C319.499379,43.3095638 349.867501,25.8345681 380.165335,8.23893142 C389.920842,2.57344832 400.057631,-1.28192537 412.246442,0.395490042 Z" id="路径" fill-rule="nonzero"></path>
        </g>
    </g>
</svg>