<?xml version="1.0" encoding="UTF-8"?>
<svg width="1072px" height="313px" viewBox="0 0 1072 313" version="1.1" xmlns="http://www.w3.org/2000/svg" xmlns:xlink="http://www.w3.org/1999/xlink">
    <title>Layer_1</title>
    <g id="页面-1" stroke="none" stroke-width="1" fill="none" fill-rule="evenodd">
        <g id="-Pixel-Tablet" transform="translate(-6, -9)">
            <g id="Layer_1" transform="translate(6, 9)">
                <path d="M824.046758,0.241774186 C840.163737,2.87232723 846.882849,17.0369064 846.958494,29.2204231 C847.040397,42.4083568 846.979464,55.5972099 846.974853,68.7856511 C846.97112,79.5761815 846.983417,90.3668355 846.925667,101.157092 C846.916115,102.935972 846.813133,104.774375 846.359593,106.480684 C844.095735,115.00102 836.551994,118.785071 828.552626,115.096986 C822.445919,112.28154 816.617857,108.86224 810.664964,105.713232 C809.634041,105.167884 808.598617,104.630892 807.190787,103.894052 C804.223728,110.521663 801.348782,116.879063 798.526206,123.25968 C788.543822,145.826003 778.625884,168.421031 768.595851,190.966168 C757.046113,216.927162 745.404042,242.84702 733.800727,268.784139 C731.479998,273.971673 729.206204,279.181078 726.816418,284.336669 C723.50193,291.486823 719.016757,297.864668 713.077643,303.032004 C698.989683,315.289341 679.637979,316.270953 663.992821,305.818334 C655.268734,299.98972 648.971047,292.29961 644.918994,282.575502 C627.485586,240.73868 609.920814,198.956552 592.413079,157.15063 C587.097404,144.457317 581.783321,131.763208 576.52298,119.046898 C573.583039,111.939965 571.196711,104.699155 572.565346,96.8230141 C575.847556,77.9347184 586.629811,69.1064381 600.388457,66.7799049 C617.848599,63.8274805 633.036375,75.2251585 637.985078,88.2299972 C642.771623,100.80878 647.820289,113.289332 652.860887,125.769775 C667.588974,162.236242 682.355323,198.687287 697.16125,235.122141 C698.281981,237.88004 699.543407,240.666535 701.242892,243.086235 C705.092768,248.567621 710.320721,251.713226 717.29246,251.103485 C721.363451,250.747448 724.230767,248.073083 724.80524,244.023308 C725.565696,238.663656 724.219075,233.780074 720.394834,229.972642 C717.333575,226.924952 713.861649,224.261811 710.413658,221.6358 C701.914364,215.162922 698.66037,206.311206 702.270246,196.246264 C705.495695,187.253276 709.556861,178.553151 713.396856,169.788482 C726.480847,139.924612 739.631863,110.090133 752.748516,80.2405603 C753.346758,78.8791597 753.859146,77.4800401 754.561469,75.7234018 C752.081106,74.2953989 749.650478,72.8914904 747.215568,71.4953342 C743.451383,69.3370088 739.620884,67.286065 735.934759,65.0020119 C731.677893,62.3642003 730.222909,58.2083611 730.469222,53.4298418 C730.650539,49.9107058 732.384114,47.2161433 735.456516,45.3796889 C739.953711,42.6916575 744.369112,39.8645763 748.898091,37.2321295 C767.40266,26.4763544 785.949607,15.7933981 804.453627,5.0366905 C810.41168,1.57322134 816.602596,-0.783677034 824.046758,0.241774186 Z" id="路径" fill="#FDFDFD" fill-rule="nonzero"></path>
                <path d="M48.608656,221.440794 C48.54668,226.970534 48.4413919,232.500191 48.4312913,238.03004 C48.4063965,251.651974 48.4083729,265.274046 48.4373572,278.89598 C48.445454,282.701326 47.9527326,286.360184 45.8707137,289.647473 C42.9563119,294.248976 38.6851737,297.08462 33.365533,297.384564 C27.2659481,297.728499 21.0745382,297.652072 15.00402,297.002073 C7.18957893,296.165301 2.25763182,291.582652 0.566765193,283.194025 C0.385324396,282.537906 0.308677505,282.3985 0.232044555,282.259092 C0.155013622,263.986891 0.0260934447,245.714716 0.0118070049,227.442487 C-0.0171364253,190.43568 0.0146063718,153.428791 0.0277402369,116.421957 C0.0284264753,114.474621 0.088618485,112.527259 0.151198389,109.929842 C0.141207459,109.107807 0.101147957,108.935881 0.0611023947,108.763955 C0.307662088,107.915012 0.557021148,107.06688 0.80034212,106.217018 C3.18483116,97.8881884 9.48202344,92.9066229 18.1603698,92.5035501 C19.2065532,92.4549633 20.2563599,92.4780012 21.3044784,92.4781113 C56.3465873,92.4817609 91.3886967,92.486632 126.43082,92.4914618 C127.029831,92.491544 127.628924,92.4872632 128.227853,92.4948096 C138.287721,92.6216208 145.147529,98.6313676 146.333749,108.657588 C146.717463,111.900778 146.72158,115.238479 146.461955,118.498134 C145.855808,126.109539 139.042441,133.794434 130.558765,134.148468 C127.121999,134.291909 123.68419,134.512298 120.246601,134.516689 C97.6340955,134.545421 75.0215084,134.522013 52.4089349,134.527995 C51.2326782,134.528297 50.0564494,134.641881 48.6454768,134.71485 C48.6454768,149.148693 48.6454768,163.43196 48.6454768,178.14201 C50.278622,178.14201 51.7355138,178.142339 53.1924059,178.141982 C74.457273,178.136686 95.7221675,178.129331 116.987035,178.12988 C118.633794,178.129935 120.290956,178.077218 121.9255,178.234134 C128.672116,178.881745 133.331167,182.303557 135.666855,188.750748 C138.052552,195.335975 137.891518,201.951031 135.917944,208.583348 C133.974588,215.114102 128.971594,218.009131 122.809608,219.42746 C121.361018,219.760857 119.84016,219.780369 117.637839,219.970187 C115.646945,220.063601 114.370808,220.131109 113.094643,220.198617 C111.857179,220.116317 110.619687,220.034046 108.618638,219.972849 C104.20266,220.054709 100.550268,220.115467 96.897875,220.176224 C94.186241,220.09988 91.4746069,220.023535 88.0350138,219.972108 C86.610194,220.064891 85.9132785,220.132728 85.2163899,220.200565 C78.6125831,220.127981 72.0087767,220.055368 64.6012291,220.005149 C61.3444353,220.089315 58.8913827,220.151087 56.4383166,220.21286 C54.6131771,220.127349 52.7880514,220.041812 50.1553285,220.032591 C49.1013774,220.552843 48.8550097,220.996832 48.608656,221.440794 Z" id="路径" fill="#FFFFFF" fill-rule="nonzero"></path>
                <path d="M880.3661,153.70176 C891.941419,157.600602 901.989237,163.265933 910.150215,172.057359 C919.517009,182.147877 925.019546,194.058425 926.955353,207.594053 C927.630668,212.315368 927.953229,217.141541 927.855407,221.907863 C927.641866,232.309247 921.446449,238.498371 911.010305,239.169501 C908.770052,239.3136 906.517941,239.306767 904.27121,239.308277 C878.799295,239.325209 853.327269,239.330258 827.855353,239.338408 C826.514056,239.338847 825.172649,239.338491 823.662056,239.338491 C823.662056,240.342797 823.431718,241.261951 823.697628,242.003141 C826.419418,249.589025 830.869732,255.752215 838.272833,259.461239 C853.762694,267.221847 868.915721,265.834226 883.809316,257.794035 C885.647191,256.80183 887.349036,255.554576 889.098861,254.402547 C892.453257,252.194125 895.906354,252.229992 899.282269,254.188579 C904.533497,257.235144 909.053309,261.124518 912.183405,266.415537 C916.187536,273.183996 915.029367,279.850753 908.866886,284.785872 C903.817341,288.82961 898.279453,292.109106 892.156715,294.281221 C862.874558,304.669214 834.723231,303.000583 808.410987,285.626019 C792.213863,274.9307 783.063902,259.250783 779.049561,240.523286 C774.673794,220.110061 778.085391,200.888574 789.212,183.253611 C797.463554,170.175364 809.242093,161.209076 823.64449,155.641192 C842.206588,148.465214 861.009785,148.219331 880.3661,153.70176 M839.394991,209.82709 C852.581909,209.864933 865.768936,209.913286 878.955854,209.935124 C883.747943,209.943006 884.533048,208.979643 883.298356,204.293975 C881.662713,198.086849 878.164602,193.123739 872.553264,189.947508 C862.678144,184.357807 852.271205,183.960443 841.776763,187.808681 C831.733006,191.491716 825.847854,198.917474 823.33686,209.824675 C828.665929,209.824675 833.580982,209.824675 839.394991,209.82709 Z" id="形状" fill="#FCFCFC" fill-rule="nonzero"></path>
                <path d="M471.525807,164.988818 C489.942215,151.966718 510.133314,148.012773 531.948253,150.873279 C542.351899,152.237465 552.08336,155.534798 560.966752,161.00249 C578.030005,171.50478 587.917037,187.047293 591.483656,206.566008 C592.497068,212.111664 592.794432,217.894778 592.570023,223.535193 C592.221551,232.295581 586.213928,238.162834 577.46179,239.087174 C575.085068,239.338189 572.672995,239.312832 570.27706,239.314643 C544.648914,239.333935 519.020823,239.333222 493.392677,239.337887 C491.763292,239.338161 490.133852,239.337887 487.887341,239.337887 C490.639542,248.977253 495.553881,256.283334 504.477237,260.332862 C517.501172,266.243336 530.61519,266.035351 543.585274,260.134619 C546.835206,258.656108 549.880984,256.696753 552.922974,254.801668 C556.912338,252.316326 560.749588,252.312457 564.697012,254.886492 C569.15095,257.790824 573.004284,261.291862 575.857821,265.793831 C580.046837,272.402713 579.426142,278.068703 573.884247,283.610655 C569.353621,288.141356 563.779338,291.109573 557.91488,293.423099 C531.721044,303.756564 505.752771,303.497261 480.638219,290.307818 C460.455903,279.708575 448.375498,262.540131 443.836913,240.320295 C438.993607,216.608255 444.337882,195.121074 459.603004,176.331118 C462.966513,172.191003 467.35798,168.885711 471.525807,164.988818 M537.175108,209.881618 C539.569341,209.865838 541.965386,209.902419 544.357478,209.822507 C548.376814,209.688314 549.086548,208.738699 547.984591,204.781214 C545.805765,196.956499 541.001434,191.245394 533.534491,188.097155 C524.752983,184.394662 515.715722,184.429213 506.813281,187.643011 C496.57108,191.340454 490.709423,198.931826 488.048072,209.884938 C504.377823,209.884938 520.330665,209.884938 537.175108,209.881618 Z" id="形状" fill="#FCFCFC" fill-rule="nonzero"></path>
                <path d="M1008.30877,260.57869 C1006.83836,258.699769 1005.56381,257.07543 1004.14007,255.260778 C997.064137,265.139771 990.201859,274.755069 983.300166,284.341801 C979.71071,289.327578 976.245756,294.478998 970.400457,297.185443 C961.054412,301.512714 951.973509,300.708379 943.544536,295.012861 C936.854078,290.492093 934.11044,281.898582 936.96749,274.301173 C938.413746,270.455377 940.586699,266.717073 943.1303,263.47918 C952.474808,251.583616 962.115417,239.920762 971.634819,228.162409 C972.844809,226.667708 973.99661,225.125943 975.328135,223.409013 C972.406749,219.691675 969.682764,216.138606 966.867104,212.65955 C959.518019,203.5788 952.084726,194.565696 944.7778,185.45122 C941.969716,181.948398 939.491,178.279304 938.535283,173.678405 C936.466411,163.720297 940.94571,155.342674 950.522093,151.940429 C957.079925,149.610602 963.761271,149.537523 970.410338,151.393256 C975.719316,152.874977 979.435029,156.674066 982.57852,160.92417 C989.70034,170.553437 996.643643,180.314702 1003.66314,190.019682 C1004.0104,190.499786 1004.39126,190.955548 1004.96898,191.694542 C1007.08429,188.812878 1009.11693,186.090845 1011.10006,183.333193 C1016.69427,175.554225 1022.17583,167.692327 1027.87281,159.989566 C1035.54808,149.612331 1050.79574,147.03588 1061.66204,154.120859 C1069.3495,159.133119 1072.23915,168.265103 1068.62895,177.417669 C1067.44608,180.41665 1065.51345,183.208495 1063.52286,185.785522 C1053.81945,198.346837 1043.98034,210.803323 1034.02486,223.506543 C1034.82171,224.578605 1035.57245,225.642215 1036.37732,226.663234 C1046.39198,239.366125 1056.41586,252.061716 1066.43426,264.761752 C1069.26188,268.346407 1071.36139,272.279881 1071.86312,276.887009 C1073.11374,288.371021 1065.68165,297.912939 1054.18505,299.366834 C1043.38078,300.733132 1034.37091,297.57227 1027.91947,288.366465 C1021.47461,279.169992 1014.97837,270.009522 1008.30877,260.57869 Z" id="路径" fill="#FCFCFC" fill-rule="nonzero"></path>
                <path d="M330.56716,163.860472 C333.280606,156.317535 338.559392,152.081318 347.30637,152.420971 C353.59198,152.665044 359.897516,152.593227 366.188615,152.437601 C371.896183,152.296438 376.30862,153.832522 377.619999,160.429686 C383.379333,156.260785 389.24939,153.139274 395.896755,151.673991 C406.957217,149.235932 417.9254,149.415954 428.672358,153.127419 C431.457002,154.089081 434.144593,155.590039 436.568688,157.283999 C441.799331,160.939236 443.196676,166.46099 439.881858,171.809555 C435.674343,178.598513 430.15457,184.347352 423.675017,189.046248 C419.819927,191.841853 415.554937,192.143197 410.843049,190.960405 C406.836888,189.954808 402.569098,189.516856 398.432342,189.599046 C387.903646,189.808239 380.056117,196.783174 378.237455,207.190211 C377.802195,209.680712 377.694547,212.254556 377.692022,214.790365 C377.669899,236.81912 377.695699,258.847985 377.735553,280.87674 C377.741866,284.365017 377.486221,287.703733 375.362235,290.719014 C372.266009,295.114589 368.010076,297.274356 362.776579,297.413022 C357.085863,297.56379 351.375111,297.665519 345.69532,297.366864 C336.559193,296.886459 331.451514,291.853233 330.479878,282.797401 C330.256621,280.716614 330.153858,278.612967 330.153254,276.519803 C330.14277,241.753224 330.151827,206.986617 330.179714,172.220037 C330.181525,169.97712 330.37201,167.734368 330.555193,164.888242 C330.635669,164.28495 330.56716,163.860472 330.56716,163.860472 Z" id="路径" fill="#FCFCFC" fill-rule="nonzero"></path>
                <path d="M256.046288,247.223487 C262.297678,236.131824 262.641652,218.420194 254.826436,203.230453 C261.029354,190.514787 270.59019,180.94164 282.832938,173.480075 C287.48887,178.060032 291.491742,182.998926 294.317858,188.597691 C308.259648,216.217396 307.958971,243.415547 290.490645,269.483954 C282.070566,282.049544 270.003352,289.988877 255.393457,294.093084 C235.70277,299.624566 216.447698,298.899605 197.811629,290.096888 C193.888179,288.243646 190.329052,285.620781 186.135876,283.068831 C197.441222,275.587495 206.659827,267.04569 213.423757,255.539409 C221.978371,261.766319 231.055346,263.587836 240.91277,260.318694 C247.657387,258.081901 252.526342,253.664302 256.046288,247.223487 Z" id="路径" fill="#FCFCFC" fill-rule="nonzero"></path>
                <path d="M156.366789,210.609175 C157.49371,202.290655 159.757703,194.708923 163.325136,187.484767 C172.076819,169.762393 186.174199,158.590814 205.088074,153.346018 C227.679352,147.081506 249.206949,149.234976 269.342038,161.781753 C270.267574,162.358504 271.137898,163.023645 272.304052,163.83571 C261.682665,171.509667 252.453559,180.24679 245.755167,191.722911 C244.756165,191.09141 243.982558,190.615459 243.221902,190.119636 C232.333768,183.022278 214.20062,183.632721 205.015239,198.024847 C199.744775,206.282841 198.207811,215.311114 198.840193,224.850367 C199.224636,230.64952 200.498085,236.255673 203.072121,241.529294 C203.71854,242.853676 204.333451,244.186607 203.45669,245.808191 C197.049256,257.658682 187.561633,266.331876 175.753769,273.179796 C159.421277,255.293527 153.491545,234.515814 156.366789,210.609175 Z" id="路径" fill="#FCFCFB" fill-rule="nonzero"></path>
            </g>
        </g>
    </g>
</svg>